<svg xmlns="http://www.w3.org/2000/svg" viewBox="0 0 64 64" role="img" aria-label="Construction project control">
  <rect width="64" height="64" rx="14" fill="#101820"/>
  <path
    fill="#f4c542"
    d="M15 34c1-9 8-16 17-16s16 7 17 16h2a3 3 0 0 1 0 6H13a3 3 0 0 1 0-6h2Z"
  />
  <path
    fill="#d7a928"
    d="M24 32V20a17 17 0 0 1 5-2v14h-5Zm11 0V18c2 .4 3.7 1.1 5 2v12h-5Z"
    opacity=".9"
  />
  <path
    fill="#fff7d6"
    d="M17 34c1.6-7.6 7.7-13 15-13s13.4 5.4 15 13H17Z"
    opacity=".24"
  />
  <path
    fill="none"
    stroke="#24746f"
    stroke-linecap="round"
    stroke-linejoin="round"
    stroke-width="6"
    d="m24 43 6 6 12-15"
  />
  <path
    fill="none"
    stroke="#ffffff"
    stroke-linecap="round"
    stroke-linejoin="round"
    stroke-width="3"
    d="m24 43 6 6 12-15"
  />
</svg>
